<svg xmlns="http://www.w3.org/2000/svg" width="24" height="24" viewBox="0 0 24 24" fill="none" stroke="#19A7CE" stroke-width="2" stroke-linecap="round" stroke-linejoin="round">
  <path d="M2 12h5" />
  <path d="M9 12h13" />
  <path d="M2 7h7" />
  <path d="M11 7h11" />
  <path d="M2 17h9" />
  <path d="M13 17h9" />
  <path d="M10 12a1 1 0 0 0-1-1H7a1 1 0 0 0-1 1v2a1 1 0 0 0 1 1h2a1 1 0 0 0 1-1z" />
  <path d="M18 7a1 1 0 0 0-1-1h-2a1 1 0 0 0-1 1v2a1 1 0 0 0 1 1h2a1 1 0 0 0 1-1z" />
  <path d="M13 17a1 1 0 0 1 1-1h2a1 1 0 0 1 1 1v2a1 1 0 0 1-1 1h-2a1 1 0 0 1-1-1z" />
</svg>